<svg width="24" height="24" viewBox="0 0 21 21" fill="none" xmlns="http://www.w3.org/2000/svg">
<path d="M15.75 1.3125H5.25C3.07538 1.3125 1.3125 3.07538 1.3125 5.25V15.75C1.3125 17.9246 3.07538 19.6875 5.25 19.6875H15.75C17.9246 19.6875 19.6875 17.9246 19.6875 15.75V5.25C19.6875 3.07538 17.9246 1.3125 15.75 1.3125Z" fill="url(#paint0_radial_39_945)"/>
<path d="M15.75 1.3125H5.25C3.07538 1.3125 1.3125 3.07538 1.3125 5.25V15.75C1.3125 17.9246 3.07538 19.6875 5.25 19.6875H15.75C17.9246 19.6875 19.6875 17.9246 19.6875 15.75V5.25C19.6875 3.07538 17.9246 1.3125 15.75 1.3125Z" fill="url(#paint1_radial_39_945)"/>
<path d="M15.75 1.3125H5.25C3.07538 1.3125 1.3125 3.07538 1.3125 5.25V15.75C1.3125 17.9246 3.07538 19.6875 5.25 19.6875H15.75C17.9246 19.6875 19.6875 17.9246 19.6875 15.75V5.25C19.6875 3.07538 17.9246 1.3125 15.75 1.3125Z" fill="url(#paint2_radial_39_945)"/>
<path d="M15.0938 6.89062C15.0938 7.43426 14.653 7.875 14.1094 7.875C13.5657 7.875 13.125 7.43426 13.125 6.89062C13.125 6.34697 13.5657 5.90625 14.1094 5.90625C14.653 5.90625 15.0938 6.34697 15.0938 6.89062Z" fill="white"/>
<path fill-rule="evenodd" clip-rule="evenodd" d="M10.5 13.7812C12.3122 13.7812 13.7812 12.3122 13.7812 10.5C13.7812 8.68783 12.3122 7.21875 10.5 7.21875C8.68783 7.21875 7.21875 8.68783 7.21875 10.5C7.21875 12.3122 8.68783 13.7812 10.5 13.7812ZM10.5 12.4688C11.5873 12.4688 12.4688 11.5873 12.4688 10.5C12.4688 9.41266 11.5873 8.53125 10.5 8.53125C9.41266 8.53125 8.53125 9.41266 8.53125 10.5C8.53125 11.5873 9.41266 12.4688 10.5 12.4688Z" fill="white"/>
<path fill-rule="evenodd" clip-rule="evenodd" d="M3.9375 10.2375C3.9375 8.0323 3.9375 6.92967 4.36666 6.08741C4.74416 5.34652 5.34652 4.74416 6.08741 4.36666C6.92967 3.9375 8.0323 3.9375 10.2375 3.9375H10.7625C12.9677 3.9375 14.0703 3.9375 14.9126 4.36666C15.6535 4.74416 16.2558 5.34652 16.6333 6.08741C17.0625 6.92967 17.0625 8.0323 17.0625 10.2375V10.7625C17.0625 12.9677 17.0625 14.0703 16.6333 14.9126C16.2558 15.6535 15.6535 16.2558 14.9126 16.6333C14.0703 17.0625 12.9677 17.0625 10.7625 17.0625H10.2375C8.0323 17.0625 6.92967 17.0625 6.08741 16.6333C5.34652 16.2558 4.74416 15.6535 4.36666 14.9126C3.9375 14.0703 3.9375 12.9677 3.9375 10.7625V10.2375ZM10.2375 5.25H10.7625C11.8868 5.25 12.651 5.25102 13.2417 5.29928C13.8172 5.3463 14.1115 5.43151 14.3167 5.53611C14.8106 5.78778 15.2122 6.18935 15.4639 6.68325C15.5685 6.88853 15.6537 7.18279 15.7007 7.75825C15.749 8.34901 15.75 9.11321 15.75 10.2375V10.7625C15.75 11.8868 15.749 12.651 15.7007 13.2417C15.6537 13.8172 15.5685 14.1115 15.4639 14.3167C15.2122 14.8106 14.8106 15.2122 14.3167 15.4639C14.1115 15.5685 13.8172 15.6537 13.2417 15.7007C12.651 15.749 11.8868 15.75 10.7625 15.75H10.2375C9.11321 15.75 8.34901 15.749 7.75825 15.7007C7.18279 15.6537 6.88853 15.5685 6.68325 15.4639C6.18935 15.2122 5.78778 14.8106 5.53611 14.3167C5.43151 14.1115 5.3463 13.8172 5.29928 13.2417C5.25102 12.651 5.25 11.8868 5.25 10.7625V10.2375C5.25 9.11321 5.25102 8.34901 5.29928 7.75825C5.3463 7.18279 5.43151 6.88853 5.53611 6.68325C5.78778 6.18935 6.18935 5.78778 6.68325 5.53611C6.88853 5.43151 7.18279 5.3463 7.75825 5.29928C8.34901 5.25102 9.11321 5.25 10.2375 5.25Z" fill="white"/>
<defs>
<radialGradient id="paint0_radial_39_945" cx="0" cy="0" r="1" gradientUnits="userSpaceOnUse" gradientTransform="translate(7.875 15.0938) rotate(-55.3758) scale(16.7472)">
<stop stop-color="#B13589"/>
<stop offset="0.79309" stop-color="#C62F94"/>
<stop offset="1" stop-color="#8A3AC8"/>
</radialGradient>
<radialGradient id="paint1_radial_39_945" cx="0" cy="0" r="1" gradientUnits="userSpaceOnUse" gradientTransform="translate(7.21875 20.3438) rotate(-65.1363) scale(14.8274)">
<stop stop-color="#E0E8B7"/>
<stop offset="0.444662" stop-color="#FB8A2E"/>
<stop offset="0.71474" stop-color="#E2425C"/>
<stop offset="1" stop-color="#E2425C" stop-opacity="0"/>
</radialGradient>
<radialGradient id="paint2_radial_39_945" cx="0" cy="0" r="1" gradientUnits="userSpaceOnUse" gradientTransform="translate(0.328125 1.96875) rotate(-8.1301) scale(25.5222 5.45892)">
<stop offset="0.156701" stop-color="#406ADC"/>
<stop offset="0.467799" stop-color="#6A45BE"/>
<stop offset="1" stop-color="#6A45BE" stop-opacity="0"/>
</radialGradient>
</defs>
</svg>
